<svg height="512" viewBox="0 0 64 64" width="512" xmlns="http://www.w3.org/2000/svg"><g id="Boy-Cap-Child-Youth-Avatar"><path d="m37.81 48.99c-.66 1.73-3.01 3.01-5.81 3.01s-5.15-1.28-5.81-3.01a1.994 1.994 0 0 0 1.53-.99 1.932 1.932 0 0 0 .28-1v-1.87a9.434 9.434 0 0 0 8 0v1.87a1.932 1.932 0 0 0 .28 1 1.994 1.994 0 0 0 1.53.99z" fill="#ffc477"/><path d="m36.28 48-.28.13a9.434 9.434 0 0 1 -8 0l-.28-.13a1.932 1.932 0 0 0 .28-1v-1.87a9.434 9.434 0 0 0 8 0v1.87a1.932 1.932 0 0 0 .28 1z" fill="#ffb655"/><path d="m47 21v9.81c0 .54-.03 1.07-.08 1.6a16.01 16.01 0 0 1 -9.15 12.9l-1.77.82a9.434 9.434 0 0 1 -8 0l-1.77-.82a16.01 16.01 0 0 1 -9.15-12.9c-.05-.53-.08-1.06-.08-1.6v-9.81z" fill="#ffc477"/><path d="m51 19v2h-38v-2a16 16 0 0 1 16-16h6a16 16 0 0 1 16 16z" fill="#ff6243"/><path d="m24.81 53.54 2.08 7.46h-4.46l-4.73-7.37-.56-.86a2 2 0 0 1 .69-2.82l4.05-2.31a.994.994 0 0 1 1.46.6l.34 1.24z" fill="#ff5023"/><path d="m46.17 49.95a2 2 0 0 1 .69 2.82l-.56.86-4.73 7.37h-4.46l2.08-7.46 1.13-4.06.34-1.24a.994.994 0 0 1 1.46-.6z" fill="#ff5023"/><g fill="#ff6243"><path d="m17.7 53.63 4.73 7.37h-5.43a1 1 0 0 1 -1-1v-.8a9.974 9.974 0 0 1 1.7-5.57z"/><path d="m39.96 49.39a2.369 2.369 0 0 1 .36.09l-1.13 4.06-2.08 7.46h-10.22l-2.08-7.46-1.13-4.06a2.369 2.369 0 0 1 .36-.09l1.96-.39a1.148 1.148 0 0 0 .19-.01c.66 1.73 3.01 3.01 5.81 3.01s5.15-1.28 5.81-3.01a1.148 1.148 0 0 0 .19.01z"/><path d="m48 59.2v.8a1 1 0 0 1 -1 1h-5.43l4.73-7.37a9.974 9.974 0 0 1 1.7 5.57z"/></g><path d="m13 25.54v-4.54h4v4.54a3.974 3.974 0 0 0 -4 0z" fill="#57565c"/><path d="m51 21v4.54a3.974 3.974 0 0 0 -4 0v-4.54z" fill="#57565c"/><path d="m39 17h-14a6 6 0 0 1 6-6h2a6 6 0 0 1 6 6z" fill="#57565c"/><path d="m33 17h6v4h-6z" fill="#ff6243"/><path d="m25 17h8v4h-8z" fill="#ff5023"/><path d="m17 30.81c0 .54.03 1.07.08 1.6a3.909 3.909 0 0 1 -2.08.59 4 4 0 1 1 2-7.46z" fill="#ffb655"/><path d="m53 29a4 4 0 0 1 -4 4 3.909 3.909 0 0 1 -2.08-.59c.05-.53.08-1.06.08-1.6v-5.27a4 4 0 0 1 6 3.46z" fill="#ffb655"/><path d="m42 34v8.43a16.143 16.143 0 0 1 -4.23 2.88l-1.77.82a9.434 9.434 0 0 1 -8 0l-1.77-.82a16.143 16.143 0 0 1 -4.23-2.88v-8.43z" fill="#44ffe8"/><path d="m52 25.01v-6.01a17.024 17.024 0 0 0 -17-17h-6a17.024 17.024 0 0 0 -17 17v6.01a4.993 4.993 0 0 0 3 8.99 5.057 5.057 0 0 0 1.28-.17 17.081 17.081 0 0 0 9.53 12.39l1.19.55v.23a1.035 1.035 0 0 1 -1 1 1.355 1.355 0 0 0 -.2.02l-1.41.28-.08-.32a2.011 2.011 0 0 0 -2.93-1.21l-4.05 2.31a3.021 3.021 0 0 0 -1.03 4.24l.21.33a10.939 10.939 0 0 0 -1.51 5.55v.8a2.006 2.006 0 0 0 2 2h30a2.006 2.006 0 0 0 2-2v-.8a10.886 10.886 0 0 0 -1.52-5.56l.22-.33a2.952 2.952 0 0 0 .39-2.33 3.007 3.007 0 0 0 -1.42-1.9l-4.05-2.31a1.983 1.983 0 0 0 -1.76-.11 1.944 1.944 0 0 0 -1.16 1.32l-.09.32-1.41-.28c-.07-.01-.23-.02-.29-.02a1.024 1.024 0 0 1 -.91-1v-.23l1.19-.55a17.081 17.081 0 0 0 9.53-12.39 5.057 5.057 0 0 0 1.28.17 4.993 4.993 0 0 0 3-8.99zm-38-3.01h2v2.12a5.177 5.177 0 0 0 -2 0zm1 10a3.009 3.009 0 0 1 -3-3 2.978 2.978 0 0 1 1.5-2.59 2.935 2.935 0 0 1 2.5-.21v4.61c0 .32.01.64.03.98a2.956 2.956 0 0 1 -1.03.21zm6 7.78a14.9 14.9 0 0 1 -2.92-7.46 13.675 13.675 0 0 1 -.08-1.51v-1.95l3 5.4zm-4 20.22v-.8a8.885 8.885 0 0 1 .77-3.6l2.83 4.4zm5.98 0-4.44-6.92-.56-.85a1 1 0 0 1 .35-1.41l4.05-2.32 3.19 11.5zm24.02-.8v.8h-3.6l2.83-4.4a8.885 8.885 0 0 1 .77 3.6zm-5.38-10.69 4.05 2.31a.984.984 0 0 1 .48.63.945.945 0 0 1 -.13.77l-5 7.78h-2.59zm-3.26 1.58.71.14-2.72 9.77h-8.7l-2.72-9.77.71-.14c1.11 1.75 3.59 2.91 6.36 2.91s5.25-1.16 6.36-2.91zm-10.68-.63a3.027 3.027 0 0 0 1.27-1.91 10.131 10.131 0 0 0 6.1 0 3.048 3.048 0 0 0 1.27 1.92 6.061 6.061 0 0 1 -4.32 1.53 6 6 0 0 1 -4.32-1.54zm13.32-7.48a14.859 14.859 0 0 1 -3.65 2.42l-1.77.82a8.387 8.387 0 0 1 -7.16 0l-1.77-.82a14.8 14.8 0 0 1 -3.65-2.43v-6.97h18zm5-11.17a13.379 13.379 0 0 1 -.08 1.5 14.9 14.9 0 0 1 -2.92 7.47v-5.52l3-5.4zm0-6.07-4.59 8.26h-6.77a4.086 4.086 0 0 0 -5.28 0h-6.77l-4.59-8.26v-2.74h28zm-19.9-8.74a5.017 5.017 0 0 1 4.9-4h2a5.017 5.017 0 0 1 4.9 4zm11.9 2v2h-4v-2zm-6 0v2h-6v-2zm8 2v-3a7.008 7.008 0 0 0 -7-7h-2a7.008 7.008 0 0 0 -7 7v3h-10v-1a15.018 15.018 0 0 1 15-15h6a15.018 15.018 0 0 1 15 15v1zm10 2v2.12a5.177 5.177 0 0 0 -2 0v-2.12zm-1 10a2.746 2.746 0 0 1 -1.03-.21c.02-.34.03-.66.03-.98v-4.61a2.935 2.935 0 0 1 2.5.21 2.978 2.978 0 0 1 1.5 2.59 3.009 3.009 0 0 1 -3 3z"/><path d="m25 37h14v2h-14z"/><path d="m27 41h10v2h-10z"/><circle cx="39" cy="30" r="2"/><path d="m39 23a11.163 11.163 0 0 0 -5.446 1.3l.992 1.737a9.276 9.276 0 0 1 4.454-1.037 9.138 9.138 0 0 1 4.548 1.1l1.027-1.717a11.033 11.033 0 0 0 -5.575-1.383z"/><circle cx="25" cy="30" r="2"/><path d="m19.425 24.378 1.027 1.722a9.138 9.138 0 0 1 4.548-1.1 9.276 9.276 0 0 1 4.454 1.04l.992-1.737a11.163 11.163 0 0 0 -5.446-1.303 11.033 11.033 0 0 0 -5.575 1.378z"/></g></svg>