<svg id="Bold" enable-background="new 0 0 32 32" height="512" viewBox="0 0 32 32" width="512" xmlns="http://www.w3.org/2000/svg"><path d="m26 32h-20c-3.314 0-6-2.686-6-6v-20c0-3.314 2.686-6 6-6h20c3.314 0 6 2.686 6 6v20c0 3.314-2.686 6-6 6z" fill="#ffe6e2"/><path d="m22.549 14h-1.458v1.451h-1.452v1.458h1.452v1.452h1.458v-1.452h1.451v-1.458h-1.451z" fill="#fd907e"/><path d="m13 21c2.886 0 4.802-2.026 4.802-4.884 0-.327-.034-.58-.082-.832h-4.72v1.719h2.838c-.116.73-.859 2.156-2.838 2.156-1.705 0-3.097-1.412-3.097-3.158s1.391-3.158 3.097-3.158c.976 0 1.623.416 1.992.771l1.357-1.303c-.873-.82-1.998-1.311-3.349-1.311-2.763 0-5 2.237-5 5s2.237 5 5 5z" fill="#fc573b"/></svg>